<?xml version="1.0" standalone="no"?>
<!DOCTYPE svg PUBLIC "-//W3C//DTD SVG 20010904//EN"
 "http://www.w3.org/TR/2001/REC-SVG-20010904/DTD/svg10.dtd">
<svg version="1.0" xmlns="http://www.w3.org/2000/svg"
 width="860.000000pt" height="803.000000pt" viewBox="0 0 860.000000 803.000000"
 preserveAspectRatio="xMidYMid meet">

<g transform="translate(0.000000,803.000000) scale(0.100000,-0.100000)"
fill="#000000" stroke="none">
<path d="M6735 7615 c-337 -43 -671 -224 -880 -475 -122 -148 -206 -294 -261
-455 l-29 -85 -1566 -2 -1565 -3 -41 -27 c-72 -47 -100 -138 -68 -215 20 -48
41 -71 87 -94 36 -18 86 -19 1571 -19 l1534 0 7 -97 c42 -604 482 -1117 1073
-1254 l95 -22 -6 -31 c-3 -17 -46 -290 -96 -606 -50 -316 -95 -598 -101 -627
-14 -72 -77 -166 -136 -204 -91 -57 -76 -56 -1063 -79 -503 -11 -1279 -29
-1725 -40 -445 -11 -936 -22 -1090 -26 l-281 -6 -78 483 c-112 696 -147 915
-316 1964 -83 517 -160 974 -172 1015 -30 108 -118 284 -182 363 -133 166
-315 278 -537 329 -79 18 -125 22 -290 22 l-195 1 -43 -28 c-106 -70 -106
-224 0 -294 42 -28 45 -28 203 -29 189 -2 293 -22 408 -80 127 -64 230 -191
282 -348 22 -65 6 34 381 -2300 179 -1116 332 -2043 339 -2060 17 -41 67 -82
114 -96 26 -8 671 -10 2157 -8 l2120 3 37 23 c112 70 112 234 0 304 l-37 23
-2039 5 -2040 5 -27 170 c-14 94 -25 171 -24 172 4 6 283 12 3150 78 956 21
923 18 1085 98 122 60 220 159 284 287 45 92 86 225 86 280 0 14 43 292 95
617 52 326 95 596 95 600 0 5 43 17 95 26 574 102 1017 538 1132 1114 24 121
24 385 0 506 -100 501 -455 906 -933 1062 -196 65 -409 86 -609 60z"/>
<path d="M2355 1774 c-183 -38 -355 -170 -433 -335 -50 -106 -66 -171 -66
-279 0 -109 16 -174 67 -280 57 -117 159 -219 278 -277 110 -54 172 -68 294
-67 167 2 314 64 432 184 191 192 237 479 116 723 -54 107 -173 223 -284 277
-140 67 -262 83 -404 54z m241 -372 c94 -48 145 -123 152 -225 17 -236 -269
-376 -443 -216 -149 137 -106 374 81 449 62 25 152 22 210 -8z"/>
<path d="M5675 1779 c-131 -22 -235 -78 -341 -183 -62 -62 -90 -99 -118 -158
-120 -250 -75 -518 119 -714 103 -104 205 -158 347 -182 87 -15 102 -15 193 0
352 58 588 390 521 733 -65 332 -390 560 -721 504z m199 -369 c97 -37 176
-149 176 -250 0 -105 -89 -225 -189 -254 -68 -20 -94 -20 -158 -1 -176 52
-248 258 -143 411 69 99 197 137 314 94z"/>
</g>
</svg>
